<svg xmlns="http://www.w3.org/2000/svg"  viewBox="0 0 100 100" width="100px" height="100px"><path fill="#c7ede6" d="M87.215,56.71C88.35,54.555,89,52.105,89,49.5c0-6.621-4.159-12.257-10.001-14.478 C78.999,35.015,79,35.008,79,35c0-11.598-9.402-21-21-21c-9.784,0-17.981,6.701-20.313,15.757C36.211,29.272,34.638,29,33,29 c-7.692,0-14.023,5.793-14.89,13.252C12.906,43.353,9,47.969,9,53.5C9,59.851,14.149,65,20.5,65c0.177,0,0.352-0.012,0.526-0.022 C21.022,65.153,21,65.324,21,65.5C21,76.822,30.178,86,41.5,86c6.437,0,12.175-2.972,15.934-7.614C59.612,80.611,62.64,82,66,82 c4.65,0,8.674-2.65,10.666-6.518C77.718,75.817,78.837,76,80,76c6.075,0,11-4.925,11-11C91,61.689,89.53,58.727,87.215,56.71z"/><path fill="#fff" d="M19.405,59H9.5C9.224,59,9,58.776,9,58.5S9.224,58,9.5,58h9.905c0.276,0,0.5,0.224,0.5,0.5 S19.682,59,19.405,59z"/><path fill="#fff" d="M22.5,59h-1c-0.276,0-0.5-0.224-0.5-0.5s0.224-0.5,0.5-0.5h1c0.276,0,0.5,0.224,0.5,0.5 S22.777,59,22.5,59z"/><path fill="#fff" d="M27.491,61H18.5c-0.276,0-0.5-0.224-0.5-0.5s0.224-0.5,0.5-0.5h8.991c0.276,0,0.5,0.224,0.5,0.5 S27.767,61,27.491,61z"/><path fill="#fff" d="M16.5,61h-1c-0.276,0-0.5-0.224-0.5-0.5s0.224-0.5,0.5-0.5h1c0.276,0,0.5,0.224,0.5,0.5 S16.777,61,16.5,61z"/><path fill="#fff" d="M13.5,61h-2c-0.276,0-0.5-0.224-0.5-0.5s0.224-0.5,0.5-0.5h2c0.276,0,0.5,0.224,0.5,0.5 S13.777,61,13.5,61z"/><path fill="#fff" d="M19.5,63h-2c-0.276,0-0.5-0.224-0.5-0.5s0.224-0.5,0.5-0.5h2c0.276,0,0.5,0.224,0.5,0.5 S19.776,63,19.5,63z"/><path fill="#fff" d="M22.5,54c-0.177,0-0.823,0-1,0c-0.276,0-0.5,0.224-0.5,0.5c0,0.276,0.224,0.5,0.5,0.5 c0.177,0,0.823,0,1,0c0.276,0,0.5-0.224,0.5-0.5C23,54.224,22.776,54,22.5,54z"/><path fill="#fff" d="M22.5,56c-0.177,0-4.823,0-5,0c-0.276,0-0.5,0.224-0.5,0.5c0,0.276,0.224,0.5,0.5,0.5 c0.177,0,4.823,0,5,0c0.276,0,0.5-0.224,0.5-0.5C23,56.224,22.776,56,22.5,56z"/><path fill="#fff" d="M27.5,58c-0.177,0-2.823,0-3,0c-0.276,0-0.5,0.224-0.5,0.5c0,0.276,0.224,0.5,0.5,0.5 c0.177,0,2.823,0,3,0c0.276,0,0.5-0.224,0.5-0.5C28,58.224,27.776,58,27.5,58z"/><g><path fill="#fff" d="M74.5,24h-10c-0.276,0-0.5-0.224-0.5-0.5s0.224-0.5,0.5-0.5h10c0.276,0,0.5,0.224,0.5,0.5 S74.776,24,74.5,24z"/><path fill="#fff" d="M78.5,24h-2c-0.276,0-0.5-0.224-0.5-0.5s0.224-0.5,0.5-0.5h2c0.276,0,0.5,0.224,0.5,0.5 S78.776,24,78.5,24z"/><path fill="#fff" d="M83.5,26h-10c-0.276,0-0.5-0.224-0.5-0.5s0.224-0.5,0.5-0.5h10c0.276,0,0.5,0.224,0.5,0.5 S83.777,26,83.5,26z"/><path fill="#fff" d="M71.5,26h-1c-0.276,0-0.5-0.224-0.5-0.5s0.224-0.5,0.5-0.5h1c0.276,0,0.5,0.224,0.5,0.5 S71.776,26,71.5,26z"/><path fill="#fff" d="M68.47,26H66.5c-0.276,0-0.5-0.224-0.5-0.5s0.224-0.5,0.5-0.5h1.97c0.276,0,0.5,0.224,0.5,0.5 S68.746,26,68.47,26z"/><path fill="#fff" d="M77.5,22h-5c-0.276,0-0.5-0.224-0.5-0.5s0.224-0.5,0.5-0.5h5c0.276,0,0.5,0.224,0.5,0.5 S77.777,22,77.5,22z"/><path fill="#fff" d="M74.5,28h-2c-0.276,0-0.5-0.224-0.5-0.5s0.224-0.5,0.5-0.5h2c0.276,0,0.5,0.224,0.5,0.5 S74.776,28,74.5,28z"/></g><g><path fill="#fdfcef" d="M29.75,43.5c0,0,3.64,0,6.125,0s4.5-2.015,4.5-4.5c0-2.333-1.782-4.229-4.055-4.455 c0.022-0.181,0.055-0.358,0.055-0.545c0-2.485-2.015-4.5-4.5-4.5c-1.438,0-2.703,0.686-3.527,1.736 c-0.14-2.636-2.302-4.736-4.973-4.736c-2.761,0-5,2.239-5,5c0,0.446,0.077,0.87,0.187,1.282c-0.642-0.777-1.6-1.282-2.687-1.282 c-1.781,0-3.234,1.335-3.455,3.055c-0.181-0.022-0.358-0.055-0.545-0.055c-2.485,0-4.5,2.015-4.5,4.5s2.015,4.5,4.5,4.5 s9.5,0,9.5,0h5.375V44h3V43.5z"/><path fill="#472b29" d="M23.375,26c-3.033,0-5.5,2.467-5.5,5.5c0,0.016,0,0.031,0,0.047c-0.602-0.354-1.29-0.547-2-0.547 c-1.831,0-3.411,1.261-3.858,3.005C11.97,34.002,11.923,34,11.875,34c-2.757,0-5,2.243-5,5s2.243,5,5,5H26.75 c0.276,0,0.5-0.224,0.5-0.5s-0.224-0.5-0.5-0.5H11.875c-2.206,0-4-1.794-4-4s1.794-4,4-4c0.117,0,0.23,0.017,0.343,0.032 l0.141,0.019c0.021,0.003,0.041,0.004,0.062,0.004c0.246,0,0.462-0.185,0.495-0.437C13.107,33.125,14.379,32,15.875,32 c0.885,0,1.723,0.401,2.301,1.1c0.098,0.118,0.241,0.182,0.386,0.182c0.078,0,0.156-0.018,0.228-0.056 c0.209-0.107,0.314-0.346,0.254-0.573c-0.116-0.436-0.17-0.802-0.17-1.153c0-2.481,2.019-4.5,4.5-4.5 c2.381,0,4.347,1.872,4.474,4.263c0.011,0.208,0.15,0.387,0.349,0.45c0.05,0.016,0.101,0.024,0.152,0.024 c0.15,0,0.296-0.069,0.392-0.192C29.513,30.563,30.654,30,31.875,30c2.206,0,4,1.794,4,4c0,0.117-0.017,0.23-0.032,0.343 l-0.019,0.141c-0.016,0.134,0.022,0.268,0.106,0.373c0.084,0.105,0.207,0.172,0.34,0.185c2.055,0.205,3.604,1.906,3.604,3.958 c0,2.206-1.794,4-4,4H29.75c-0.276,0-0.5,0.224-0.5,0.5s0.224,0.5,0.5,0.5h6.125c2.757,0,5-2.243,5-5 c0-2.397-1.689-4.413-4.003-4.877c0.002-0.041,0.003-0.082,0.003-0.123c0-2.757-2.243-5-5-5c-1.176,0-2.293,0.416-3.183,1.164 C28.094,27.76,25.93,26,23.375,26L23.375,26z"/><path fill="#472b29" d="M21.875,33c-1.403,0-2.609,0.999-2.913,2.341C18.595,35.119,18.176,35,17.75,35 c-1.202,0-2.198,0.897-2.353,2.068C15.194,37.022,15.001,37,14.812,37c-1.529,0-2.811,1.2-2.918,2.732 C11.885,39.87,11.989,39.99,12.126,40c0.006,0,0.012,0,0.018,0c0.13,0,0.24-0.101,0.249-0.232 c0.089-1.271,1.151-2.268,2.419-2.268c0.229,0,0.47,0.042,0.738,0.127c0.022,0.007,0.045,0.01,0.067,0.01 c0.055,0,0.11-0.02,0.156-0.054c0.064-0.047,0.102-0.129,0.102-0.209c0-1.034,0.841-1.875,1.875-1.875 c0.447,0,0.885,0.168,1.231,0.473c0.047,0.041,0.106,0.063,0.165,0.063c0.032,0,0.063-0.006,0.093-0.019 c0.088-0.035,0.148-0.117,0.155-0.212c0.102-1.292,1.191-2.305,2.479-2.305c0.208,0,0.425,0.034,0.682,0.107 c0.023,0.007,0.047,0.01,0.07,0.01c0.109,0,0.207-0.073,0.239-0.182c0.038-0.133-0.039-0.271-0.172-0.309 C22.392,33.04,22.131,33,21.875,33L21.875,33z"/></g><g><path fill="#fdfcef" d="M86.5,64.5c0,0,1.567,0,3.5,0s3.5-1.567,3.5-3.5c0-1.781-1.335-3.234-3.055-3.455 C90.473,57.366,90.5,57.187,90.5,57c0-1.933-1.567-3.5-3.5-3.5c-1.032,0-1.95,0.455-2.59,1.165 c-0.384-1.808-1.987-3.165-3.91-3.165c-2.209,0-4,1.791-4,4c0,0.191,0.03,0.374,0.056,0.558C76.128,55.714,75.592,55.5,75,55.5 c-1.228,0-2.245,0.887-2.455,2.055C72.366,57.527,72.187,57.5,72,57.5c-1.933,0-3.5,1.567-3.5,3.5s1.567,3.5,3.5,3.5s7.5,0,7.5,0 V65h7V64.5z"/><path fill="#472b29" d="M88.25,60C88.112,60,88,59.888,88,59.75c0-1.223,0.995-2.218,2.218-2.218 c0.034,0.009,0.737-0.001,1.244,0.136c0.133,0.036,0.212,0.173,0.176,0.306c-0.036,0.134-0.173,0.213-0.306,0.176 c-0.444-0.12-1.1-0.12-1.113-0.118c-0.948,0-1.719,0.771-1.719,1.718C88.5,59.888,88.388,60,88.25,60z"/><circle cx="81.5" cy="64.5" r=".5" fill="#472b29"/><path fill="#472b29" d="M90,65h-3.5c-0.276,0-0.5-0.224-0.5-0.5s0.224-0.5,0.5-0.5H90c1.654,0,3-1.346,3-3 c0-1.496-1.125-2.768-2.618-2.959c-0.134-0.018-0.255-0.088-0.336-0.196s-0.115-0.244-0.094-0.377C89.975,57.314,90,57.16,90,57 c0-1.654-1.346-3-3-3c-0.85,0-1.638,0.355-2.219,1c-0.125,0.139-0.321,0.198-0.5,0.148c-0.182-0.049-0.321-0.195-0.36-0.379 C83.58,53.165,82.141,52,80.5,52c-1.93,0-3.5,1.57-3.5,3.5c0,0.143,0.021,0.28,0.041,0.418c0.029,0.203-0.063,0.438-0.242,0.54 c-0.179,0.102-0.396,0.118-0.556-0.01C75.878,56.155,75.449,56,75,56c-0.966,0-1.792,0.691-1.963,1.644 c-0.048,0.267-0.296,0.446-0.569,0.405C72.314,58.025,72.16,58,72,58c-1.654,0-3,1.346-3,3s1.346,3,3,3h7.5 c0.276,0,0.5,0.224,0.5,0.5S79.776,65,79.5,65H72c-2.206,0-4-1.794-4-4s1.794-4,4-4c0.059,0,0.116,0.002,0.174,0.006 C72.588,55.82,73.711,55,75,55c0.349,0,0.689,0.061,1.011,0.18C76.176,52.847,78.126,51,80.5,51c1.831,0,3.466,1.127,4.153,2.774 C85.333,53.276,86.155,53,87,53c2.206,0,4,1.794,4,4c0,0.048-0.001,0.095-0.004,0.142C92.739,57.59,94,59.169,94,61 C94,63.206,92.206,65,90,65z"/><path fill="#472b29" d="M84.5,64c-0.159,0-0.841,0-1,0c-0.276,0-0.5,0.224-0.5,0.5c0,0.276,0.224,0.5,0.5,0.5 c0.159,0,0.841,0,1,0c0.276,0,0.5-0.224,0.5-0.5C85,64.224,84.776,64,84.5,64z"/></g><g><polygon fill="#00a5a5" points="46.224,75.335 44.624,71.335 37.646,71.335 38.297,68.735 65.203,68.735 65.854,71.335 58.876,71.335 57.276,75.335"/><path fill="#472b29" d="M64.657,69.435l0.3,1.2H59.35h-0.948l-0.352,0.88l-1.248,3.12H46.698l-1.248-3.12l-0.352-0.88 H44.15h-5.607l0.3-1.2H64.657 M65.75,68.035h-28l-1,4h7.4l1.6,4h12l1.6-4h7.4L65.75,68.035L65.75,68.035z"/><path fill="#00a5a5" d="M58.589,55.187c1.441-2.758,0.733-4.958-0.149-6.345c-0.874-1.373-2.068-2.193-2.367-2.384 c-0.319-0.291-1.936-1.674-8.32-6.23c-6.629-4.732-2.083-12.217-1.887-12.533l5.636-7.504l0.186,0.185 c-1.038,3.596,2.26,5.883,3.877,7.005c0.27,0.187,0.506,0.35,0.682,0.49c0.054,0.041,3.094,2.259,8.311,6.229 c5.438,4.137,1.971,10.378,1.93,10.437l-7.813,10.734L58.589,55.187z"/><path fill="#472b29" d="M50.814,22.271c0.308,2.88,3.026,4.766,4.35,5.683c0.255,0.177,0.478,0.33,0.644,0.462l0.024,0.02 l0.025,0.019c0.03,0.022,3.066,2.237,8.275,6.202c4.914,3.738,1.82,9.419,1.79,9.462l-5.802,7.971 c0.006-1.481-0.509-2.71-1.091-3.625c-0.911-1.431-2.117-2.295-2.532-2.567c-0.461-0.411-2.237-1.887-8.338-6.241 c-5.901-4.211-2.124-10.886-1.728-11.548L50.814,22.271 M51.425,19.125l-6.154,8.198c0,0-5.186,8.292,2.075,13.474 s8.298,6.218,8.298,6.218s5.186,3.109,2.075,8.292l1.037,1.037l8.298-11.401c0.648-0.907,3.386-7.246-2.075-11.4 c-5.284-4.021-8.298-6.219-8.298-6.219c-1.297-1.037-5.661-3.242-4.194-7.138L51.425,19.125L51.425,19.125z"/><path fill="#00a5a5" d="M51.189,65.211c0.205-2.491-1.882-3.986-2.297-4.257c-0.263-0.237-1.387-1.184-5.569-4.169 c-4.267-3.046-1.327-7.86-1.199-8.064l3.311-4.407c-0.134,2.285,3.296,4.594,3.334,4.619c0.019,0.02,1.92,1.603,5.53,4.146 c3.72,2.619,0.794,7.236,0.764,7.282l-3.651,5.003L51.189,65.211z"/><path fill="#472b29" d="M45.084,45.946c0.823,1.799,2.82,3.24,3.23,3.522c0.346,0.286,2.241,1.829,5.582,4.181 c3.117,2.195,0.784,6.006,0.595,6.303l-2.736,3.75c-0.407-1.589-1.569-2.746-2.444-3.314c-0.388-0.341-1.656-1.375-5.581-4.175 c-3.546-2.53-1.41-6.458-1.039-7.08L45.084,45.946 M45.371,43.232l-3.841,5.117c0,0-3.466,5.542,1.387,9.005 s5.546,4.156,5.546,4.156s2.461,1.487,1.976,4.035l1.137,0.78l4.068-5.576c0.778-1.166,2.807-5.604-0.942-8.243 c-3.629-2.555-5.546-4.156-5.546-4.156c-1.032-0.686-3.626-2.888-2.896-4.507L45.371,43.232L45.371,43.232z"/><path fill="#472b29" d="M62,46.535c-0.057,0-0.113-0.019-0.16-0.058c-0.106-0.088-0.12-0.246-0.032-0.352 c2.076-2.49,2.976-4.712,2.676-6.603c-0.285-1.795-1.603-2.642-1.616-2.65c-0.116-0.073-0.152-0.228-0.079-0.344 c0.075-0.118,0.229-0.151,0.344-0.08c0.062,0.038,1.518,0.964,1.844,2.984c0.329,2.042-0.607,4.402-2.783,7.013 C62.143,46.505,62.071,46.535,62,46.535z"/><path fill="#472b29" d="M61.117,35.535c-0.052,0-0.103-0.016-0.147-0.048l-6.161-4.5c-0.111-0.081-0.136-0.238-0.055-0.349 c0.082-0.112,0.238-0.135,0.35-0.054l6.161,4.5c0.111,0.081,0.136,0.238,0.055,0.349C61.271,35.5,61.194,35.535,61.117,35.535z"/><path fill="#472b29" d="M53.073,29.66c-0.049,0-0.099-0.014-0.142-0.044c-1.497-1.033-2.146-2.203-2.775-3.334 c-0.066-0.121-0.023-0.273,0.098-0.34c0.12-0.067,0.272-0.023,0.34,0.097c0.628,1.131,1.222,2.199,2.621,3.166 c0.114,0.078,0.143,0.234,0.064,0.348C53.23,29.622,53.152,29.66,53.073,29.66z"/><path fill="#472b29" d="M52.105,60.41c-0.057,0-0.113-0.019-0.16-0.058c-0.106-0.088-0.12-0.246-0.032-0.352 c1.012-1.214,1.453-2.289,1.312-3.196c-0.131-0.841-0.727-1.228-0.752-1.244l-3.746-2.753c-0.111-0.082-0.135-0.238-0.053-0.349 c0.083-0.112,0.24-0.135,0.35-0.053l3.73,2.743c0.017,0.01,0.791,0.502,0.963,1.568c0.17,1.058-0.307,2.272-1.419,3.606 C52.248,60.38,52.177,60.41,52.105,60.41z"/><path fill="#472b29" d="M47.25,51.66c-0.051,0-0.102-0.015-0.146-0.047c-0.914-0.653-2.053-2.007-2.225-2.906 c-0.026-0.136,0.063-0.267,0.198-0.293c0.133-0.026,0.267,0.063,0.292,0.198c0.145,0.749,1.207,2.009,2.025,2.594 c0.112,0.08,0.138,0.236,0.058,0.349C47.404,51.624,47.328,51.66,47.25,51.66z"/><path fill="#472b29" d="M70.674,44.285c-0.034,0-0.068-0.007-0.102-0.021c-0.126-0.056-0.183-0.203-0.127-0.33 c1.187-2.685,1.22-8.063-2.479-11.08c-0.106-0.087-0.123-0.245-0.035-0.352c0.086-0.107,0.244-0.123,0.352-0.036 c3.899,3.181,3.868,8.844,2.619,11.67C70.861,44.23,70.77,44.285,70.674,44.285z"/><path fill="#472b29" d="M66.25,51.394c-0.052,0-0.104-0.016-0.148-0.049c-0.111-0.082-0.135-0.239-0.053-0.35 c1.853-2.5,3.06-4.175,3.491-4.846c0.075-0.117,0.229-0.149,0.346-0.075c0.115,0.075,0.149,0.229,0.074,0.345 c-0.443,0.689-1.624,2.329-3.509,4.873C66.401,51.359,66.326,51.394,66.25,51.394z"/><path fill="#472b29" d="M62.875,55.91c-0.053,0-0.105-0.016-0.15-0.05c-0.11-0.083-0.133-0.24-0.049-0.35 c0,0,0.854-1.132,1.968-2.624c0.083-0.11,0.239-0.134,0.35-0.051c0.11,0.083,0.134,0.239,0.051,0.35 c-1.114,1.493-1.97,2.626-1.97,2.626C63.025,55.876,62.95,55.91,62.875,55.91z"/><g><path fill="#472b29" d="M46.625,64.41c-0.049,0-0.099-0.014-0.142-0.044c0,0-0.803-0.552-2.004-1.408 c-0.112-0.08-0.139-0.236-0.058-0.349c0.08-0.113,0.236-0.138,0.349-0.058c1.196,0.853,1.995,1.403,1.996,1.404 c0.114,0.078,0.143,0.234,0.064,0.348C46.782,64.372,46.704,64.41,46.625,64.41z"/></g><g><path fill="#472b29" d="M43.25,62.014c-0.051,0-0.103-0.016-0.146-0.048c-0.743-0.539-1.555-1.138-2.379-1.761 c-0.11-0.083-0.132-0.24-0.049-0.35c0.083-0.11,0.241-0.131,0.35-0.049c0.822,0.621,1.632,1.218,2.371,1.755 c0.112,0.081,0.137,0.238,0.056,0.349C43.403,61.979,43.327,62.014,43.25,62.014z"/></g><g><path fill="#472b29" d="M39.125,58.91c-0.055,0-0.108-0.017-0.154-0.053c-3.591-2.821-2.102-8.211-2.086-8.265 c0.037-0.132,0.176-0.21,0.309-0.172c0.133,0.038,0.21,0.176,0.172,0.309c-0.015,0.051-1.41,5.123,1.914,7.735 c0.108,0.085,0.128,0.242,0.042,0.351C39.272,58.877,39.199,58.91,39.125,58.91z"/></g></g></svg>